<svg id="Layer_1" data-name="Layer 1" xmlns="http://www.w3.org/2000/svg" viewBox="0 0 774.19 968.24"><defs><style>.cls-1,.cls-2{fill:#09f;}.cls-2{stroke:#000;stroke-miterlimit:10;}</style></defs><rect class="cls-1" x="516.13" y="806.45" width="32.25" height="32.26"/><rect class="cls-1" x="516.13" y="774.19" width="32.25" height="32.26"/><rect class="cls-1" x="516.13" y="741.93" width="32.25" height="32.26"/><rect class="cls-1" x="516.13" y="709.68" width="32.25" height="32.25"/><rect class="cls-1" x="516.13" y="677.42" width="32.25" height="32.26"/><rect class="cls-1" x="516.13" y="645.16" width="32.25" height="32.26"/><rect class="cls-1" x="516.13" y="612.9" width="32.25" height="32.26"/><rect class="cls-1" x="516.13" y="580.64" width="32.25" height="32.26"/><rect class="cls-1" x="516.13" y="548.39" width="32.25" height="32.25"/><rect class="cls-1" x="516.13" y="516.13" width="32.25" height="32.26"/><rect class="cls-1" x="516.13" y="483.87" width="32.25" height="32.26"/><rect class="cls-1" x="516.13" y="451.61" width="32.25" height="32.26"/><rect class="cls-1" x="516.13" y="419.35" width="32.25" height="32.26"/><rect class="cls-1" x="516.13" y="387.09" width="32.25" height="32.26"/><rect class="cls-1" x="516.13" y="354.84" width="32.25" height="32.25"/><rect class="cls-1" x="516.13" y="322.58" width="32.25" height="32.26"/><rect class="cls-1" x="516.13" y="290.32" width="32.25" height="32.26"/><rect class="cls-1" x="516.13" y="258.06" width="32.25" height="32.26"/><rect class="cls-1" x="516.13" y="129.03" width="32.25" height="32.26"/><rect class="cls-1" x="483.87" y="838.71" width="32.26" height="32.26"/><rect class="cls-1" x="483.87" y="677.42" width="32.26" height="32.26"/><rect class="cls-1" x="483.87" y="612.9" width="32.26" height="32.26"/><rect class="cls-1" x="483.87" y="225.8" width="32.26" height="32.26"/><rect class="cls-1" x="483.87" y="161.29" width="32.26" height="32.26"/><rect class="cls-1" x="483.87" y="129.03" width="32.26" height="32.26"/><rect class="cls-1" x="451.61" y="870.97" width="32.26" height="32.25"/><rect class="cls-1" x="451.61" y="741.93" width="32.26" height="32.26"/><rect class="cls-1" x="451.61" y="709.68" width="32.26" height="32.25"/><rect class="cls-1" x="451.61" y="645.16" width="32.26" height="32.26"/><rect class="cls-1" x="451.61" y="419.35" width="32.26" height="32.26"/><rect class="cls-1" x="451.61" y="354.84" width="32.26" height="32.25"/><rect class="cls-1" x="451.61" y="193.55" width="32.26" height="32.25"/><rect class="cls-1" x="451.61" y="129.03" width="32.26" height="32.26"/><rect class="cls-1" x="451.61" y="96.77" width="32.26" height="32.26"/><rect class="cls-1" x="419.35" y="870.97" width="32.26" height="32.25"/><rect class="cls-1" x="419.35" y="806.45" width="32.26" height="32.26"/><rect class="cls-1" x="419.35" y="774.19" width="32.26" height="32.26"/><rect class="cls-1" x="419.35" y="677.42" width="32.26" height="32.26"/><rect class="cls-1" x="419.35" y="645.16" width="32.26" height="32.26"/><rect class="cls-1" x="419.35" y="419.35" width="32.26" height="32.26"/><rect class="cls-1" x="419.35" y="322.58" width="32.26" height="32.26"/><rect class="cls-1" x="419.35" y="193.55" width="32.26" height="32.25"/><rect class="cls-1" x="419.35" y="129.03" width="32.26" height="32.26"/><rect class="cls-1" x="419.35" y="64.51" width="32.26" height="32.26"/><rect class="cls-1" x="419.35" y="32.26" width="32.26" height="32.25"/><rect class="cls-1" x="387.09" y="870.97" width="32.26" height="32.25"/><rect class="cls-1" x="387.09" y="838.71" width="32.26" height="32.26"/><rect class="cls-1" x="387.09" y="806.45" width="32.26" height="32.26"/><rect class="cls-1" x="387.09" y="774.19" width="32.26" height="32.26"/><rect class="cls-1" x="387.09" y="741.93" width="32.26" height="32.26"/><rect class="cls-1" x="387.09" y="709.68" width="32.26" height="32.25"/><rect class="cls-1" x="387.09" y="677.42" width="32.26" height="32.26"/><rect class="cls-1" x="387.09" y="322.58" width="32.26" height="32.26"/><rect class="cls-1" x="387.09" y="193.55" width="32.26" height="32.25"/><rect class="cls-1" x="387.09" y="129.03" width="32.26" height="32.26"/><rect class="cls-1" x="387.09" width="32.26" height="32.26"/><rect class="cls-1" x="354.84" y="870.97" width="32.25" height="32.25"/><rect class="cls-1" x="354.84" y="677.42" width="32.25" height="32.26"/><rect class="cls-1" x="354.84" y="483.87" width="32.25" height="32.26"/><rect class="cls-1" x="354.84" y="354.84" width="32.25" height="32.25"/><rect class="cls-1" x="354.84" y="193.55" width="32.25" height="32.25"/><rect class="cls-1" x="354.84" y="129.03" width="32.25" height="32.26"/><rect class="cls-1" x="354.84" width="32.25" height="32.26"/><rect class="cls-1" x="322.58" y="870.97" width="32.26" height="32.25"/><rect class="cls-1" x="322.58" y="677.42" width="32.26" height="32.26"/><rect class="cls-1" x="322.58" y="516.13" width="32.26" height="32.26"/><rect class="cls-1" x="322.58" y="193.55" width="32.26" height="32.25"/><rect class="cls-1" x="322.58" y="129.03" width="32.26" height="32.26"/><rect class="cls-1" x="322.58" y="64.51" width="32.26" height="32.26"/><rect class="cls-1" x="322.58" width="32.26" height="32.26"/><rect class="cls-1" x="290.32" y="870.97" width="32.26" height="32.25"/><rect class="cls-1" x="290.32" y="838.71" width="32.26" height="32.26"/><rect class="cls-1" x="290.32" y="806.45" width="32.26" height="32.26"/><rect class="cls-1" x="290.32" y="774.19" width="32.26" height="32.26"/><rect class="cls-1" x="290.32" y="741.93" width="32.26" height="32.26"/><rect class="cls-1" x="290.32" y="709.68" width="32.26" height="32.25"/><rect class="cls-1" x="290.32" y="677.42" width="32.26" height="32.26"/><rect class="cls-1" x="290.32" y="516.13" width="32.26" height="32.26"/><rect class="cls-1" x="290.32" y="193.55" width="32.26" height="32.25"/><rect class="cls-1" x="290.32" y="129.03" width="32.26" height="32.26"/><rect class="cls-1" x="290.32" y="96.77" width="32.26" height="32.26"/><rect class="cls-1" x="290.32" y="64.51" width="32.26" height="32.26"/><rect class="cls-1" x="290.32" y="32.26" width="32.26" height="32.25"/><rect class="cls-1" x="290.32" width="32.26" height="32.26"/><rect class="cls-1" x="258.06" y="870.97" width="32.26" height="32.25"/><rect class="cls-1" x="258.06" y="806.45" width="32.26" height="32.26"/><rect class="cls-1" x="258.06" y="774.19" width="32.26" height="32.26"/><rect class="cls-1" x="258.06" y="677.42" width="32.26" height="32.26"/><rect class="cls-1" x="258.06" y="483.87" width="32.26" height="32.26"/><rect class="cls-1" x="258.06" y="354.84" width="32.26" height="32.25"/><rect class="cls-1" x="258.06" y="193.55" width="32.26" height="32.25"/><rect class="cls-1" x="258.06" y="129.03" width="32.26" height="32.26"/><rect class="cls-1" x="258.06" y="64.51" width="32.26" height="32.26"/><rect class="cls-1" x="258.06" width="32.26" height="32.26"/><rect class="cls-1" x="225.8" y="870.97" width="32.26" height="32.25"/><rect class="cls-1" x="225.8" y="774.19" width="32.26" height="32.26"/><rect class="cls-1" x="225.8" y="741.93" width="32.26" height="32.26"/><rect class="cls-1" x="225.8" y="645.16" width="32.26" height="32.26"/><rect class="cls-1" x="225.8" y="322.58" width="32.26" height="32.26"/><rect class="cls-1" x="225.8" y="193.55" width="32.26" height="32.25"/><rect class="cls-1" x="225.8" y="129.03" width="32.26" height="32.26"/><rect class="cls-1" x="225.8" width="32.26" height="32.26"/><rect class="cls-1" x="193.54" y="870.97" width="32.26" height="32.25"/><rect class="cls-1" x="193.54" y="709.68" width="32.26" height="32.25"/><rect class="cls-1" x="193.54" y="645.16" width="32.26" height="32.26"/><rect class="cls-1" x="193.54" y="419.35" width="32.26" height="32.26"/><rect class="cls-1" x="193.54" y="322.58" width="32.26" height="32.26"/><rect class="cls-1" x="193.54" y="193.55" width="32.26" height="32.25"/><rect class="cls-1" x="193.54" y="129.03" width="32.26" height="32.26"/><rect class="cls-1" x="193.54" width="32.26" height="32.26"/><rect class="cls-1" x="161.29" y="870.97" width="32.25" height="32.25"/><rect class="cls-1" x="161.29" y="709.68" width="32.25" height="32.25"/><rect class="cls-1" x="161.29" y="612.9" width="32.25" height="32.26"/><rect class="cls-1" x="161.29" y="419.35" width="32.25" height="32.26"/><rect class="cls-1" x="161.29" y="354.84" width="32.25" height="32.25"/><rect class="cls-1" x="161.29" y="193.55" width="32.25" height="32.25"/><rect class="cls-1" x="161.29" y="129.03" width="32.25" height="32.26"/><rect class="cls-1" x="161.29" width="32.25" height="32.26"/><rect class="cls-1" x="129.03" y="870.97" width="32.26" height="32.25"/><rect class="cls-1" x="129.03" y="774.19" width="32.26" height="32.26"/><rect class="cls-1" x="129.03" y="677.42" width="32.26" height="32.26"/><rect class="cls-1" x="129.03" y="612.9" width="32.26" height="32.26"/><rect class="cls-1" x="129.03" y="193.55" width="32.26" height="32.25"/><rect class="cls-1" x="129.03" y="129.03" width="32.26" height="32.26"/><rect class="cls-1" x="129.03" y="64.51" width="32.26" height="32.26"/><rect class="cls-1" x="129.03" y="32.26" width="32.26" height="32.25"/><rect class="cls-1" x="96.77" y="870.97" width="32.26" height="32.25"/><rect class="cls-1" x="96.77" y="806.45" width="32.26" height="32.26"/><rect class="cls-1" x="96.77" y="677.42" width="32.26" height="32.26"/><rect class="cls-1" x="96.77" y="612.9" width="32.26" height="32.26"/><rect class="cls-1" x="96.77" y="193.55" width="32.26" height="32.25"/><rect class="cls-1" x="96.77" y="129.03" width="32.26" height="32.26"/><rect class="cls-1" x="96.77" y="96.77" width="32.26" height="32.26"/><rect class="cls-1" x="64.51" y="870.97" width="32.26" height="32.25"/><rect class="cls-1" x="64.51" y="806.45" width="32.26" height="32.26"/><rect class="cls-1" x="64.51" y="645.16" width="32.26" height="32.26"/><rect class="cls-1" x="64.51" y="580.64" width="32.26" height="32.26"/><rect class="cls-1" x="64.51" y="193.55" width="32.26" height="32.25"/><rect class="cls-1" x="64.51" y="129.03" width="32.26" height="32.26"/><rect class="cls-1" x="32.25" y="838.71" width="32.26" height="32.26"/><rect class="cls-1" x="32.25" y="774.19" width="32.26" height="32.26"/><rect class="cls-1" x="32.25" y="612.9" width="32.26" height="32.26"/><rect class="cls-1" x="32.25" y="548.39" width="32.26" height="32.25"/><rect class="cls-1" x="32.25" y="225.8" width="32.26" height="32.26"/><rect class="cls-1" x="32.25" y="161.29" width="32.26" height="32.26"/><rect class="cls-1" x="32.25" y="129.03" width="32.26" height="32.26"/><rect class="cls-1" y="806.45" width="32.25" height="32.26"/><rect class="cls-1" y="774.19" width="32.25" height="32.26"/><rect class="cls-1" y="741.93" width="32.25" height="32.26"/><rect class="cls-1" y="709.68" width="32.25" height="32.25"/><rect class="cls-1" y="677.42" width="32.25" height="32.26"/><rect class="cls-1" y="645.16" width="32.25" height="32.26"/><rect class="cls-1" y="612.9" width="32.25" height="32.26"/><rect class="cls-1" y="580.64" width="32.25" height="32.26"/><rect class="cls-1" y="548.39" width="32.25" height="32.25"/><rect class="cls-1" y="516.13" width="32.25" height="32.26"/><rect class="cls-1" y="483.87" width="32.25" height="32.26"/><rect class="cls-1" y="451.61" width="32.25" height="32.26"/><rect class="cls-1" y="419.35" width="32.25" height="32.26"/><rect class="cls-1" y="387.09" width="32.25" height="32.26"/><rect class="cls-1" y="354.84" width="32.25" height="32.25"/><rect class="cls-1" y="322.58" width="32.25" height="32.26"/><rect class="cls-1" y="290.32" width="32.25" height="32.26"/><rect class="cls-1" y="258.06" width="32.25" height="32.26"/><rect class="cls-1" y="129.03" width="32.25" height="32.26"/><polyline class="cls-2" points="774.19 967.74 741.93 967.74 709.67 967.74 677.42 967.74 645.16 967.74"/><path class="cls-2" d="M952.24,1014.5" transform="translate(-210.31 -46.76)"/><path class="cls-2" d="M920,1014.5" transform="translate(-210.31 -46.76)"/><path class="cls-2" d="M887.73,1014.5" transform="translate(-210.31 -46.76)"/></svg>